<?xml version="1.0" encoding="utf-8"?>
<!-- Generator: Adobe Illustrator 19.2.1, SVG Export Plug-In . SVG Version: 6.00 Build 0)  -->
<svg version="1.1" id="Layer_1" xmlns="http://www.w3.org/2000/svg" xmlns:xlink="http://www.w3.org/1999/xlink" x="0px" y="0px"
	 viewBox="0 0 188.4 36" style="enable-background:new 0 0 188.4 36;" xml:space="preserve">
<style type="text/css">
	.st0{fill:#fff;}
</style>
<g>
	<path class="st0" d="M18.7,22c-2.6,0.2-5.2,0.5-7.9,0.7c0,0.2,0,0.5,0,0.7c0,2.9,0,5.9,0,8.8c-2.7,0.4-5.5,0.8-8.2,1.2
		c0-10.1,0-20.2,0-30.3c5.4,0,10.8,0,16.2,0c7.8,0,12.3,3.7,12.3,8.9C31.1,17.1,26.5,21.3,18.7,22z M18.8,9.8
		c-2.6,0.1-5.3,0.2-7.9,0.3c0,0.2,0,0.5,0,0.7c0,1.4,0,2.9,0,4.3c0,0.2,0,0.5,0,0.7c2.6-0.2,5.2-0.3,7.9-0.5c3.1-0.2,4-1.4,4-2.9
		C22.7,10.7,21.9,9.7,18.8,9.8z"/>
	<path class="st0" d="M75.9,26.7c-3.1,0.1-6.2,0.2-9.3,0.4c-1.5-2-2.9-4.1-4.4-6.2c-1-1.4-2.4-2.1-5.6-1.9c-1.5,0.1-3,0.1-4.5,0.2
		c0,0.2,0,0.4,0,0.6c0,2.7,0,5.4,0,8.2c-2.8,0.2-5.5,0.4-8.3,0.6c0-8.5,0.1-16.9,0.1-25.4c5.2,0,10.4,0,15.6,0
		c8.1,0,12.5,2.7,12.5,7.4c0,2.4-2.1,4.7-5.1,5.8c0,0,0,0,0,0.1c1.2,0.3,2.3,1.1,3,2.2C71.9,21.2,73.9,24,75.9,26.7z M59.5,8.8
		c-2.5,0-4.9,0.1-7.4,0.1c0,0.2,0,0.4,0,0.6c0,1.2,0,2.3,0,3.5c0,0.2,0,0.4,0,0.6c2.3-0.1,4.6-0.1,7-0.2c3.5-0.1,4.6-1.1,4.6-2.4
		C63.6,9.8,62.5,8.8,59.5,8.8z"/>
	<path class="st0" d="M95.6,26.4c-2.8,0-5.5,0-8.3,0c0-7.8,0-15.5,0-23.3c2.8,0,5.5,0,8.3,0C95.6,10.9,95.6,18.6,95.6,26.4z"/>
	<path class="st0" d="M124.1,27.4c-5.8-0.3-11.1-1.8-15.3-4.8c1.9-1.4,3.7-2.8,5.6-4.2c2.7,2,6.9,3.3,10.3,3.4
		c4.5,0.2,5.4-0.7,5.4-1.4c0-0.4-0.3-1.2-4.1-2c-0.6-0.1-4.9-1.1-5.6-1.2c-5.3-1.1-10.9-2.8-11-7.1c0-4.1,5.4-7.1,14.1-7.1
		c5.9,0,10.7,1.6,14.4,4.4c-1.8,1.5-3.7,3-5.5,4.4c-2.3-1.9-5.8-3.2-9.1-3.2c-4,0-5.5,0.7-5.5,1.4c0,0.6,0.8,0.9,5.6,1.9
		c0.6,0.2,4.2,0.9,4.9,1c6.5,1.3,10.2,4.3,10.2,7.9C138.5,24.9,133.8,28,124.1,27.4z"/>
	<path class="st0" d="M185.8,33.6c-2.7-0.4-5.5-0.8-8.2-1.2c0-4.4,0-8.7,0-13.1c0,0,0,0-0.1,0c-2.9,4.2-5.9,8.3-8.8,12.2l0,0
		c-3-4.7-5.9-9.2-8.9-13.5h-0.1c0,4,0,8.1,0,12.1c-2.8-0.3-5.5-0.6-8.3-0.9c0-8.7-0.1-17.4-0.1-26.1c2.3,0,4.5,0,6.8,0
		c3.5,5,7,10.3,10.4,15.8h0.1c3.4-5,6.9-10.2,10.4-15.7c2.3,0,4.5,0,6.8,0C185.8,13.3,185.8,23.4,185.8,33.6z"/>
</g>
</svg>
