<?xml version="1.0" encoding="utf-8"?>
<!-- Generator: Adobe Illustrator 19.1.0, SVG Export Plug-In . SVG Version: 6.00 Build 0)  -->
<svg version="1.1" id="Layer_1" xmlns="http://www.w3.org/2000/svg" xmlns:xlink="http://www.w3.org/1999/xlink" x="0px" y="0px"
	 viewBox="0 0 73.6 64.9" style="enable-background:new 0 0 73.6 64.9;" xml:space="preserve">
<style type="text/css">
	.st0{fill:none;stroke:#2D2D35;stroke-width:2;stroke-miterlimit:10;}
	.st1{fill:none;stroke:#2D2D35;stroke-width:2;stroke-linecap:round;stroke-miterlimit:10;}
</style>
<path class="st0" d="M72.7,1.7L36.9,63.8c0,0-0.1,0.1-0.1,0.1c0,0-0.1-0.1-0.1-0.1L0.9,1.7"/>
<path class="st0" d="M36.8,22.8L1.3,2c0,0-0.1-0.2,0-0.3C12.4,1.2,24.6,1,36.8,1C49,1,60.8,1.4,72,2c0.1,0,0.1,0.1,0.1,0.1
	L36.8,22.8V64"/>
<line class="st1" x1="36.8" y1="27.8" x2="67.8" y2="9.6"/>
<line class="st1" x1="36.8" y1="32.8" x2="63.9" y2="16.8"/>
<line class="st1" x1="36.8" y1="37.8" x2="59.8" y2="24.3"/>
<line class="st1" x1="36.8" y1="42.8" x2="55.3" y2="31.9"/>
<line class="st1" x1="36.8" y1="47.8" x2="50.8" y2="39.6"/>
<line class="st1" x1="36.8" y1="52.8" x2="46.5" y2="47.1"/>
<line class="st1" x1="36.8" y1="57.8" x2="42.1" y2="54.7"/>
</svg>
