<?xml version="1.0" encoding="utf-8"?>
<!-- Generator: Adobe Illustrator 19.1.0, SVG Export Plug-In . SVG Version: 6.00 Build 0)  -->
<svg version="1.1" id="Layer_1" xmlns="http://www.w3.org/2000/svg" xmlns:xlink="http://www.w3.org/1999/xlink" x="0px" y="0px"
	 viewBox="0 0 515.6 446.5" style="enable-background:new 0 0 515.6 446.5;" xml:space="preserve">
<style type="text/css">
	.st0{clip-path:url(#SVGID_2_);fill:#C5A266;}
	.st1{clip-path:url(#SVGID_2_);}
	.st2{clip-path:url(#SVGID_2_);fill:none;stroke:#C5A266;stroke-width:2.4;stroke-miterlimit:10;}
	.st3{clip-path:url(#SVGID_2_);fill:none;stroke:#C5A266;stroke-width:2.4;stroke-linecap:round;stroke-miterlimit:10;}
	.st4{clip-path:url(#SVGID_2_);fill:none;stroke:#C5A266;stroke-width:2.5;stroke-miterlimit:10;}
	.st5{clip-path:url(#SVGID_2_);fill:none;stroke:#C5A266;stroke-width:2.5;stroke-linecap:round;stroke-miterlimit:10;}
	.st6{fill:none;stroke:#C5A266;stroke-width:2.4;stroke-miterlimit:10;}
</style>
<g>
	<defs>
		<rect id="SVGID_1_" x="120" y="28.6" width="275.5" height="320.3"/>
	</defs>
	<clipPath id="SVGID_2_">
		<use xlink:href="#SVGID_1_"  style="overflow:visible;"/>
	</clipPath>
	<path class="st0" d="M218.6,238.4h-39.7c-0.7,0-1.2-0.5-1.2-1.2v-6.4c0-0.7,0.5-1.2,1.2-1.2h39.7c0.7,0,1.2,0.5,1.2,1.2v6.4
		C219.8,237.9,219.3,238.4,218.6,238.4 M180.1,236.1h37.4v-4h-37.4V236.1z"/>
	<path class="st0" d="M230.1,293.7h-62.6c-0.7,0-1.2-0.5-1.2-1.2v-48.1c0-0.7,0.5-1.2,1.2-1.2h62.6c0.7,0,1.2,0.5,1.2,1.2v48.1
		C231.2,293.1,230.7,293.7,230.1,293.7 M168.7,291.3h60.2v-45.7h-60.2V291.3z"/>
	<path class="st0" d="M230.1,245.6h-62.6c-0.5,0-0.9-0.3-1.1-0.7s-0.1-0.9,0.1-1.2l5.6-7.2c0.2-0.3,0.6-0.5,0.9-0.5h51.4
		c0.4,0,0.7,0.2,0.9,0.5l5.6,7.2c0.3,0.4,0.3,0.8,0.1,1.2C230.9,245.3,230.5,245.6,230.1,245.6 M169.9,243.2h57.7l-3.7-4.8h-50.2
		L169.9,243.2z"/>
	<path class="st0" d="M232.7,245.6h-67.9c-0.7,0-1.2-0.5-1.2-1.2s0.5-1.2,1.2-1.2h67.9c0.7,0,1.2,0.5,1.2,1.2
		S233.4,245.6,232.7,245.6"/>
	<path class="st0" d="M261.3,349H136.2c-0.7,0-1.2-0.5-1.2-1.2v-48.1c0-0.7,0.5-1.2,1.2-1.2h125.1c0.7,0,1.2,0.5,1.2,1.2v48.1
		C262.5,348.4,262,349,261.3,349 M137.4,346.6h122.8v-45.7H137.4V346.6z"/>
	<path class="st1" d="M261.3,300.9H136.2c-0.5,0-0.9-0.3-1.1-0.7c-0.2-0.4-0.1-0.9,0.1-1.2l5.6-7.1c0.2-0.3,0.6-0.5,0.9-0.5h113.9
		c0.4,0,0.7,0.2,0.9,0.5l5.6,7.1c0.3,0.4,0.3,0.8,0.1,1.2C262.2,300.6,261.8,300.9,261.3,300.9 M138.6,298.5h120.3l-3.7-4.8H142.4
		L138.6,298.5z"/>
	<path class="st1" d="M261,300.9H136.5c-0.7,0-1.2-0.5-1.2-1.2c0-0.7,0.5-1.2,1.2-1.2H261c0.7,0,1.2,0.5,1.2,1.2
		C262.2,300.4,261.7,300.9,261,300.9"/>
	<path class="st0" d="M261.3,300.9H136.2c-0.5,0-0.9-0.3-1.1-0.7c-0.2-0.4-0.1-0.9,0.1-1.2l5.6-7.1c0.2-0.3,0.6-0.5,0.9-0.5h113.9
		c0.4,0,0.7,0.2,0.9,0.5l5.6,7.1c0.3,0.4,0.3,0.8,0.1,1.2C262.2,300.6,261.8,300.9,261.3,300.9 M138.6,298.5h120.3l-3.7-4.8H142.4
		L138.6,298.5z"/>
	<path class="st0" d="M261,300.9H136.5c-0.7,0-1.2-0.5-1.2-1.2c0-0.7,0.5-1.2,1.2-1.2H261c0.7,0,1.2,0.5,1.2,1.2
		C262.2,300.4,261.7,300.9,261,300.9"/>
	<path class="st0" d="M181.4,230.6v-37.4c0-0.7,0.5-1.2,1.2-1.2s1.2,0.5,1.2,1.2v37.4c0,0.7-0.5,1.2-1.2,1.2
		S181.4,231.2,181.4,230.6"/>
	<path class="st0" d="M176.8,346.9v-46.4c0-0.7,0.5-1.2,1.2-1.2s1.2,0.5,1.2,1.2v46.4c0,0.7-0.5,1.2-1.2,1.2
		S176.8,347.5,176.8,346.9"/>
	<path class="st0" d="M218.4,346.9v-46.4c0-0.7,0.5-1.2,1.2-1.2s1.2,0.5,1.2,1.2v46.4c0,0.7-0.5,1.2-1.2,1.2
		S218.4,347.5,218.4,346.9"/>
	<path class="st0" d="M213.8,230.6v-37.4c0-0.7,0.5-1.2,1.2-1.2s1.2,0.5,1.2,1.2v37.4c0,0.7-0.5,1.2-1.2,1.2
		S213.8,231.2,213.8,230.6"/>
	<path class="st0" d="M213.6,194.2h-29.7c-0.7,0-1.2-0.5-1.2-1.2v-15.5c0-0.7,0.5-1.2,1.2-1.2h29.7c0.7,0,1.2,0.5,1.2,1.2V193
		C214.8,193.7,214.3,194.2,213.6,194.2 M185.1,191.8h27.3v-13.1h-27.3V191.8z"/>
	<path class="st0" d="M213.6,178.7h-29.7c-0.7,0-1.2-0.5-1.2-1.2c0-8.8,7.2-16,16-16s16,7.2,16,16
		C214.8,178.2,214.3,178.7,213.6,178.7 M185.2,176.3h27.2c-0.6-7-6.5-12.5-13.6-12.5S185.8,169.3,185.2,176.3"/>
	<path class="st0" d="M198.8,163.9c-0.7,0-1.2-0.5-1.2-1.2v-19.5c0-0.7,0.5-1.2,1.2-1.2s1.2,0.5,1.2,1.2v19.5
		C199.9,163.3,199.4,163.9,198.8,163.9"/>
	<path class="st0" d="M176.3,284.7c-0.7,0-1.2-0.5-1.2-1.2V253c0-0.7,0.5-1.2,1.2-1.2s1.2,0.5,1.2,1.2v30.5
		C177.5,284.1,176.9,284.7,176.3,284.7"/>
	<path class="st0" d="M183.8,284.7c-0.7,0-1.2-0.5-1.2-1.2V253c0-0.7,0.5-1.2,1.2-1.2s1.2,0.5,1.2,1.2v30.5
		C185,284.1,184.4,284.7,183.8,284.7"/>
	<path class="st0" d="M191.3,284.7c-0.7,0-1.2-0.5-1.2-1.2V253c0-0.7,0.5-1.2,1.2-1.2c0.7,0,1.2,0.5,1.2,1.2v30.5
		C192.5,284.1,191.9,284.7,191.3,284.7"/>
	<path class="st0" d="M198.8,284.7c-0.7,0-1.2-0.5-1.2-1.2V253c0-0.7,0.5-1.2,1.2-1.2s1.2,0.5,1.2,1.2v30.5
		C199.9,284.1,199.4,284.7,198.8,284.7"/>
	<path class="st0" d="M206.3,284.7c-0.7,0-1.2-0.5-1.2-1.2V253c0-0.7,0.5-1.2,1.2-1.2s1.2,0.5,1.2,1.2v30.5
		C207.4,284.1,206.9,284.7,206.3,284.7"/>
	<path class="st0" d="M213.7,284.7c-0.7,0-1.2-0.5-1.2-1.2V253c0-0.7,0.5-1.2,1.2-1.2s1.2,0.5,1.2,1.2v30.5
		C214.9,284.1,214.4,284.7,213.7,284.7"/>
	<path class="st0" d="M221.2,284.7c-0.7,0-1.2-0.5-1.2-1.2V253c0-0.7,0.5-1.2,1.2-1.2c0.7,0,1.2,0.5,1.2,1.2v30.5
		C222.4,284.1,221.9,284.7,221.2,284.7"/>
	<path class="st0" d="M168.2,349h-22.1c-0.7,0-1.2-0.5-1.2-1.2v-28.2c0-6.7,5.5-12.2,12.2-12.2c6.7,0,12.2,5.5,12.2,12.2v28.2
		C169.4,348.4,168.9,349,168.2,349 M147.3,346.6H167v-27c0-5.4-4.4-9.9-9.9-9.9c-5.4,0-9.9,4.4-9.9,9.9V346.6z"/>
	<path class="st0" d="M209.8,349h-22.1c-0.7,0-1.2-0.5-1.2-1.2v-28.2c0-6.7,5.5-12.2,12.2-12.2c6.7,0,12.2,5.5,12.2,12.2v28.2
		C211,348.4,210.5,349,209.8,349 M188.9,346.6h19.7v-27c0-5.4-4.4-9.9-9.9-9.9c-5.4,0-9.9,4.4-9.9,9.9V346.6z"/>
	<path class="st0" d="M251.4,349h-22.1c-0.7,0-1.2-0.5-1.2-1.2v-28.2c0-6.7,5.5-12.2,12.2-12.2c6.7,0,12.2,5.5,12.2,12.2v28.2
		C252.6,348.4,252,349,251.4,349 M230.5,346.6h19.7v-27c0-5.4-4.4-9.9-9.9-9.9c-5.4,0-9.9,4.4-9.9,9.9V346.6z"/>
	<path class="st0" d="M198.8,222.1c-5.7,0-10.3-4.6-10.3-10.3c0-5.7,4.6-10.3,10.3-10.3s10.3,4.6,10.3,10.3
		C209,217.5,204.4,222.1,198.8,222.1 M198.8,204.1c-4.3,0-7.8,3.5-7.8,7.8c0,4.3,3.5,7.8,7.8,7.8c4.3,0,7.8-3.5,7.8-7.8
		C206.5,207.6,203,204.1,198.8,204.1"/>
	<path class="st0" d="M202.3,216.7c-0.3,0-0.6-0.1-0.9-0.4l-3.9-3.9v-4.2c0-0.7,0.6-1.3,1.3-1.3c0.7,0,1.3,0.6,1.3,1.3v3.2l3.2,3.2
		c0.5,0.5,0.5,1.3,0,1.8C203,216.6,202.7,216.7,202.3,216.7"/>
	<rect x="167.8" y="250.6" class="st0" width="62.6" height="2.5"/>
	<rect x="167.8" y="283.4" class="st0" width="62.6" height="2.5"/>
	<path class="st0" d="M198.8,190c-2.6,0-4.7-2.1-4.7-4.7c0-2.6,2.1-4.7,4.7-4.7s4.7,2.1,4.7,4.7C203.5,187.9,201.4,190,198.8,190
		 M198.8,183.1c-1.2,0-2.2,1-2.2,2.2s1,2.2,2.2,2.2c1.2,0,2.2-1,2.2-2.2S200,183.1,198.8,183.1"/>
	<rect x="261" y="167.1" class="st2" width="33.9" height="72.1"/>
	<line class="st2" x1="261" y1="175.1" x2="294.9" y2="175.1"/>
	<line class="st2" x1="261" y1="183.1" x2="294.9" y2="183.1"/>
	<line class="st2" x1="261" y1="191.1" x2="294.9" y2="191.1"/>
	<line class="st2" x1="261" y1="199.1" x2="294.9" y2="199.1"/>
	<line class="st2" x1="261" y1="207.1" x2="294.9" y2="207.1"/>
	<line class="st2" x1="261" y1="215.1" x2="294.9" y2="215.1"/>
	<line class="st2" x1="261" y1="223.1" x2="294.9" y2="223.1"/>
	<line class="st2" x1="261" y1="231.1" x2="294.9" y2="231.1"/>
	<line class="st2" x1="284.2" y1="167.1" x2="284.2" y2="239.2"/>
	<rect x="265.5" y="127" class="st2" width="24.9" height="40.1"/>
	<line class="st2" x1="265.5" y1="135" x2="290.4" y2="135"/>
	<line class="st2" x1="265.5" y1="143" x2="290.4" y2="143"/>
	<line class="st2" x1="265.5" y1="151" x2="290.4" y2="151"/>
	<line class="st2" x1="265.5" y1="159" x2="290.4" y2="159"/>
	<line class="st2" x1="280.9" y1="127" x2="280.9" y2="167.1"/>
	<polyline class="st2" points="255.3,292.3 255.3,239.2 300.5,239.2 300.5,279.2 	"/>
	<line class="st2" x1="255.3" y1="247.2" x2="300.5" y2="247.2"/>
	<line class="st2" x1="255.3" y1="255.2" x2="300.5" y2="255.2"/>
	<line class="st2" x1="255.3" y1="263.2" x2="300.5" y2="263.2"/>
	<line class="st2" x1="255.3" y1="271.2" x2="300.5" y2="271.2"/>
	<line class="st2" x1="255.3" y1="279.2" x2="300.5" y2="279.2"/>
	<line class="st2" x1="255.3" y1="287.2" x2="300.5" y2="287.2"/>
	<line class="st2" x1="257.7" y1="295.2" x2="300.5" y2="295.2"/>
	<line class="st2" x1="261.4" y1="303.2" x2="300.5" y2="303.2"/>
	<line class="st2" x1="286.3" y1="239.2" x2="286.3" y2="348.1"/>
	<rect x="271.4" y="119.3" class="st2" width="13" height="7.6"/>
	<line class="st3" x1="277.9" y1="119.3" x2="277.9" y2="95.7"/>
	<path class="st2" d="M374.4,347.6h-73.5c-0.1,0-0.3-0.1-0.3-0.3v-67.8l4-3.7c0.1-0.2,0.1-0.3,0.3-0.3h65.5c0.1,0,0.3,0.1,0.3,0.3
		l4,3.7v67.8C374.7,347.5,374.5,347.6,374.4,347.6z"/>
	<path class="st2" d="M352,265.4h-28.7c-0.1,0-0.3-0.1-0.3-0.3v-32.5c0-0.1,0.1-0.3,0.3-0.3H352c0.1,0,0.3,0.1,0.3,0.3v32.5
		C352.3,265.3,352.2,265.4,352,265.4z"/>
	<path class="st2" d="M341.6,302h-7.8c-0.1,0-0.1,0-0.1-0.1v-15.1c0-0.1,0-0.1,0.1-0.1h7.8c0.1,0,0.1,0,0.1,0.1L341.6,302
		C341.7,302,341.6,302,341.6,302z"/>
	<path class="st2" d="M354.8,302H347c-0.1,0-0.1,0-0.1-0.1v-15.1c0-0.1,0-0.1,0.1-0.1h7.8c0.1,0,0.1,0,0.1,0.1L354.8,302
		C354.9,302,354.9,302,354.8,302z"/>
	<path class="st2" d="M328.3,302h-7.8c-0.1,0-0.1,0-0.1-0.1v-15.1c0-0.1,0-0.1,0.1-0.1h7.8c0.1,0,0.1,0,0.1,0.1L328.3,302
		C328.4,302,328.4,302,328.3,302z"/>
	<polyline class="st2" points="323,232.6 337.7,199 352.3,232.6 	"/>
	<line class="st3" x1="337.7" y1="199" x2="337.7" y2="190"/>
	<path class="st2" d="M329,347.6v-23.2c0-4.8,3.9-8.6,8.6-8.6s8.6,3.9,8.6,8.6v23.1"/>
	<path class="st2" d="M334.9,231.5v-7.4c0-1.5,1.2-2.7,2.7-2.7c1.5,0,2.7,1.2,2.7,2.7v7.3"/>
	<line class="st3" x1="300.7" y1="279.6" x2="374.7" y2="279.6"/>
	<line class="st3" x1="323" y1="236.3" x2="352.3" y2="236.3"/>
	<path class="st2" d="M363.3,275.6H312c-0.1,0-0.2-0.1-0.2-0.2v-9.8c0-0.1,0.1-0.2,0.2-0.2h51.3c0.1,0,0.2,0.1,0.2,0.2v9.8
		C363.5,275.5,363.4,275.6,363.3,275.6z"/>
	<rect x="324.4" y="310.2" class="st2" width="26.5" height="37.4"/>
	<circle class="st2" cx="337.7" cy="250.7" r="5.4"/>
	<polyline class="st4" points="300.7,347.6 261.4,347.6 261.4,311.3 300.7,311.3 	"/>
	<rect x="267.5" y="318.2" class="st4" width="12.7" height="29.4"/>
	<polyline class="st4" points="300.9,347.6 291.9,347.6 291.9,318.2 300.5,318.2 	"/>
	<line class="st5" x1="121.3" y1="347.6" x2="389.7" y2="347.6"/>
	<path class="st0" d="M138.6,230.4c-0.5,0-1-0.4-1-1v-2h-2c-0.5,0-1-0.4-1-1s0.4-1,1-1h2v-2c0-0.5,0.4-1,1-1s1,0.4,1,1v2h2
		c0.5,0,1,0.4,1,1s-0.4,1-1,1h-2v2C139.6,230,139.2,230.4,138.6,230.4"/>
	<path class="st0" d="M324.9,179.3c-0.5,0-1-0.4-1-1c0-1.4-1.1-2.5-2.5-2.5c0,0-0.9,0-0.9-1v0c0-0.9,0.9-1,0.9-1
		c0.7,0,1.3-0.3,1.8-0.7s0.7-1.1,0.7-1.8c0-0.5,0.4-1,1-1c0.5,0,1,0.4,1,1c0,1.4,1.1,2.5,2.5,2.5h0h0c0.5,0,1,0.4,1,1
		c0,0.5-0.4,1-1,1c0,0,0,0,0,0c0,0,0,0,0,0s0,0,0,0h0c0,0,0,0,0,0c0,0,0,0,0,0c0,0,0,0,0,0c-1.4,0-2.5,1.1-2.5,2.5
		C325.9,178.9,325.5,179.3,324.9,179.3 M324.3,174.8c0.3,0.2,0.5,0.4,0.7,0.7c0.2-0.3,0.4-0.5,0.7-0.7c-0.3-0.2-0.5-0.4-0.7-0.7
		c-0.1,0.1-0.2,0.2-0.3,0.4C324.5,174.6,324.4,174.7,324.3,174.8"/>
	<path class="st0" d="M391,260.6c-0.5,0-1-0.4-1-1c0-1.4-1.1-2.5-2.5-2.5c0,0-0.9,0-0.9-1v0c0-0.9,0.9-1,0.9-1
		c0.7,0,1.3-0.3,1.8-0.7s0.7-1.1,0.7-1.8c0-0.5,0.4-1,1-1c0.5,0,1,0.4,1,1c0,1.4,1.1,2.5,2.5,2.5h0h0c0.5,0,1,0.4,1,1
		c0,0.5-0.4,1-1,1c0,0,0,0,0,0c0,0,0,0,0,0s0,0,0,0h0c0,0,0,0,0,0c0,0,0,0,0,0c0,0,0,0,0,0c-1.4,0-2.5,1.1-2.5,2.5
		C392,260.2,391.6,260.6,391,260.6 M390.3,256.1c0.3,0.2,0.5,0.4,0.7,0.7c0.2-0.3,0.4-0.5,0.7-0.7c-0.3-0.2-0.5-0.4-0.7-0.7
		c-0.1,0.1-0.2,0.2-0.3,0.4C390.6,255.9,390.5,256,390.3,256.1"/>
	<path class="st5" d="M209,166.1c7.5-65.4,34.9-105.8,60.7-115.8"/>
	<line class="st5" x1="267.5" y1="29.9" x2="267.5" y2="127"/>
	<line class="st5" x1="267.5" y1="74.4" x2="241.9" y2="74.4"/>
	<line class="st5" x1="267.5" y1="94.4" x2="230.5" y2="94.4"/>
	<line class="st5" x1="267.5" y1="114.4" x2="220.7" y2="114.4"/>
	<line class="st5" x1="265.5" y1="134.4" x2="215" y2="134.4"/>
	<line class="st5" x1="265.5" y1="154.4" x2="211" y2="154.4"/>
	<line class="st5" x1="261" y1="174.4" x2="213.6" y2="174.4"/>
	<line class="st5" x1="261" y1="194.4" x2="215" y2="194.4"/>
	<line class="st5" x1="261" y1="214.4" x2="215.8" y2="214.4"/>
	<line class="st5" x1="261" y1="234.4" x2="219" y2="234.4"/>
	<line class="st5" x1="255.3" y1="254.4" x2="230.5" y2="254.4"/>
	<line class="st5" x1="255.3" y1="274.4" x2="230.5" y2="274.4"/>
</g>
<polygon class="st6" points="129.6,445.3 1.4,223.3 129.6,1.2 386,1.2 514.2,223.3 386,445.3 "/>
</svg>
