<?xml version="1.0" encoding="utf-8"?>
<!-- Generator: Adobe Illustrator 19.1.0, SVG Export Plug-In . SVG Version: 6.00 Build 0)  -->
<svg version="1.1" id="Layer_1" xmlns="http://www.w3.org/2000/svg" xmlns:xlink="http://www.w3.org/1999/xlink" x="0px" y="0px"
	 viewBox="0 0 199.7 159.6" style="enable-background:new 0 0 199.7 159.6;" xml:space="preserve">
<style type="text/css">
	.st0{fill:#C5A266;}
	.st1{fill:none;stroke:#C5A266;stroke-width:1.7;stroke-miterlimit:10;}
	.st2{fill:none;stroke:#C5A266;stroke-width:1.7;stroke-linecap:round;stroke-miterlimit:10;}
</style>
<path class="st0" d="M49.2,135.6c-0.5,0-1-0.4-1-1v-2h-2c-0.5,0-1-0.4-1-1s0.4-1,1-1h2v-2c0-0.5,0.4-1,1-1c0.5,0,1,0.4,1,1v2h2
	c0.5,0,1,0.4,1,1s-0.4,1-1,1h-2v2C50.2,135.1,49.7,135.6,49.2,135.6z"/>
<path class="st0" d="M179.4,49.3c-0.5,0-1-0.4-1-1c0-1.4-1.1-2.5-2.5-2.5c0,0-0.9,0-0.9-1l0,0c0-0.9,0.9-1,0.9-1
	c0.7,0,1.3-0.3,1.8-0.7c0.5-0.5,0.7-1.1,0.7-1.8c0-0.5,0.4-1,1-1h0c0.5,0,1,0.4,1,1c0,1.4,1.1,2.5,2.5,2.5c0,0,0,0,0,0h0
	c0.5,0,1,0.4,1,1c0,0.5-0.4,1-1,1c0,0,0,0,0,0c0,0,0,0,0,0l0,0c0,0,0,0,0,0l0,0c0,0,0,0,0,0c0,0,0,0,0,0c-1.4,0-2.5,1.1-2.5,2.5
	C180.4,48.9,179.9,49.3,179.4,49.3z M178.7,44.8c0.3,0.2,0.5,0.4,0.7,0.7c0.2-0.3,0.4-0.5,0.7-0.7c-0.3-0.2-0.5-0.4-0.7-0.7
	c-0.1,0.1-0.2,0.2-0.3,0.4C178.9,44.6,178.8,44.7,178.7,44.8z"/>
<path class="st0" d="M32.9,54.9c-0.5,0-1-0.4-1-1c0-1.4-1.1-2.5-2.5-2.5c0,0-0.9,0-0.9-1l0,0c0-0.9,0.9-1,0.9-1
	c0.7,0,1.3-0.3,1.8-0.7c0.5-0.5,0.7-1.1,0.7-1.8c0-0.5,0.4-1,1-1h0c0.5,0,1,0.4,1,1c0,1.4,1.1,2.5,2.5,2.5c0,0,0,0,0,0c0,0,0,0,0,0
	c0.5,0,1,0.4,1,1c0,0.5-0.4,1-1,1c0,0,0,0,0,0c0,0,0,0,0,0c0,0,0,0,0,0h0c0,0,0,0,0,0c0,0,0,0,0,0c0,0,0,0,0,0
	c-1.4,0-2.5,1.1-2.5,2.5C33.9,54.4,33.5,54.9,32.9,54.9z M32.2,50.4c0.3,0.2,0.5,0.4,0.7,0.7c0.2-0.3,0.4-0.5,0.7-0.7
	c-0.3-0.2-0.5-0.4-0.7-0.7c-0.1,0.1-0.2,0.2-0.3,0.4C32.5,50.2,32.4,50.3,32.2,50.4z"/>
<g>
	<g>
		<path class="st1" d="M104.2,144.7L150.9,1c0,0,0,0,0,0l-29,26.4c0,0,0,0,0,0H86c0,0,0,0,0,0L54.5,0.9c0,0,0,0,0,0L104.2,144.7"/>
	</g>
	<polyline class="st1" points="121.3,159.4 129.9,133.6 173.9,82.4 121.8,27.5 	"/>
	<polyline class="st1" points="86.2,158.8 97.2,126.2 110.7,126.4 121.2,158.8 	"/>
	<polyline class="st1" points="86,27.5 33,82.4 77.4,131.4 86,159.4 	"/>
	<line class="st1" x1="48.4" y1="66.4" x2="54.2" y2="0.4"/>
	<line class="st1" x1="52.8" y1="62.1" x2="57.4" y2="9.7"/>
	<line class="st1" x1="57.2" y1="57.4" x2="60.6" y2="18.4"/>
	<line class="st1" x1="61.6" y1="52.9" x2="63.8" y2="28"/>
	<line class="st1" x1="66" y1="48" x2="67" y2="37"/>
	<polyline class="st1" points="158.8,66.4 124.8,82.4 82.2,82.4 48.4,66.4 	"/>
	<line class="st1" x1="151.1" y1="0.4" x2="158.8" y2="66.4"/>
	<line class="st1" x1="148.2" y1="9.5" x2="154.2" y2="61.7"/>
	<line class="st1" x1="145.3" y1="18.9" x2="149.7" y2="57"/>
	<line class="st1" x1="142.3" y1="27.5" x2="145.1" y2="51.8"/>
	<line class="st1" x1="139.4" y1="36.9" x2="140.6" y2="47.7"/>
	<polyline class="st1" points="119.5,158 104.2,144.7 87.7,158 	"/>
	<polyline class="st1" points="114.4,158.7 104.2,149.7 93.4,158.4 	"/>
	<polyline class="st1" points="108.5,158.5 104.2,154.7 99.3,158.7 	"/>
	<line class="st1" x1="85.1" y1="158.5" x2="122.3" y2="158.5"/>
	<polyline class="st1" points="33,82.4 82.2,82.4 77.4,131.4 	"/>
	<polyline class="st1" points="173.9,82.4 124.8,82.4 129.9,133.6 	"/>
	<line class="st2" x1="10" y1="82.4" x2="35" y2="82.4"/>
	<line class="st2" x1="173.9" y1="82.4" x2="198.9" y2="82.4"/>
	<line class="st2" x1="189.7" y1="76.5" x2="198.9" y2="82.4"/>
	<line class="st2" x1="0.9" y1="76.5" x2="10" y2="82.4"/>
	<line class="st2" x1="198.9" y1="82.5" x2="189.7" y2="88.4"/>
	<line class="st2" x1="10" y1="82.5" x2="0.9" y2="88.4"/>
	<line class="st2" x1="10" y1="76.5" x2="19.2" y2="82.4"/>
	<line class="st2" x1="19.2" y1="82.5" x2="10" y2="88.4"/>
</g>
</svg>
